v 0.0 1.0 0.0
v 4.6865205E-17 0.9238795 -0.38268343
v -0.1464466 0.9238795 -0.35355338
v -0.27059805 0.9238795 -0.27059805
v -0.35355338 0.9238795 -0.1464466
v -0.38268343 0.9238795 -7.0297805E-17
v -0.35355338 0.9238795 0.1464466
v -0.27059805 0.9238795 0.27059805
v -0.1464466 0.9238795 0.35355338
v -9.373041E-17 0.9238795 0.38268343
v 0.1464466 0.9238795 0.35355338
v 0.27059805 0.9238795 0.27059805
v 0.35355338 0.9238795 0.1464466
v 0.38268343 0.9238795 1.1716301E-16
v 0.35355338 0.9238795 -0.1464466
v 0.27059805 0.9238795 -0.27059805
v 0.1464466 0.9238795 -0.35355338
v 8.6595606E-17 0.70710677 -0.70710677
v -0.27059805 0.70710677 -0.65328145
v -0.49999997 0.70710677 -0.49999997
v -0.65328145 0.70710677 -0.27059805
v -0.70710677 0.70710677 -1.298934E-16
v -0.65328145 0.70710677 0.27059805
v -0.49999997 0.70710677 0.49999997
v -0.27059805 0.70710677 0.65328145
v -1.7319121E-16 0.70710677 0.70710677
v 0.27059805 0.70710677 0.65328145
v 0.49999997 0.70710677 0.49999997
v 0.65328145 0.70710677 0.27059805
v 0.70710677 0.70710677 2.1648901E-16
v 0.65328145 0.70710677 -0.27059805
v 0.49999997 0.70710677 -0.49999997
v 0.27059805 0.70710677 -0.65328145
v 1.1314261E-16 0.38268343 -0.9238795
v -0.35355338 0.38268343 -0.85355335
v -0.65328145 0.38268343 -0.65328145
v -0.85355335 0.38268343 -0.35355338
v -0.9238795 0.38268343 -1.697139E-16
v -0.85355335 0.38268343 0.35355338
v -0.65328145 0.38268343 0.65328145
v -0.35355338 0.38268343 0.85355335
v -2.2628522E-16 0.38268343 0.9238795
v 0.35355338 0.38268343 0.85355335
v 0.65328145 0.38268343 0.65328145
v 0.85355335 0.38268343 0.35355338
v 0.9238795 0.38268343 2.8285651E-16
v 0.85355335 0.38268343 -0.35355338
v 0.65328145 0.38268343 -0.65328145
v 0.35355338 0.38268343 -0.85355335
v 1.2246469E-16 0.0 -1.0
v -0.38268343 0.0 -0.9238795
v -0.70710677 0.0 -0.70710677
v -0.9238795 0.0 -0.38268343
v -1.0 0.0 -1.8369701E-16
v -0.9238795 0.0 0.38268343
v -0.70710677 0.0 0.70710677
v -0.38268343 0.0 0.9238795
v -2.4492937E-16 0.0 1.0
v 0.38268343 0.0 0.9238795
v 0.70710677 0.0 0.70710677
v 0.9238795 0.0 0.38268343
v 1.0 0.0 3.061617E-16
v 0.9238795 0.0 -0.38268343
v 0.70710677 0.0 -0.70710677
v 0.38268343 0.0 -0.9238795
v 1.1314261E-16 -0.38268343 -0.9238795
v -0.35355338 -0.38268343 -0.85355335
v -0.65328145 -0.38268343 -0.65328145
v -0.85355335 -0.38268343 -0.35355338
v -0.9238795 -0.38268343 -1.697139E-16
v -0.85355335 -0.38268343 0.35355338
v -0.65328145 -0.38268343 0.65328145
v -0.35355338 -0.38268343 0.85355335
v -2.2628522E-16 -0.38268343 0.9238795
v 0.35355338 -0.38268343 0.85355335
v 0.65328145 -0.38268343 0.65328145
v 0.85355335 -0.38268343 0.35355338
v 0.9238795 -0.38268343 2.8285651E-16
v 0.85355335 -0.38268343 -0.35355338
v 0.65328145 -0.38268343 -0.65328145
v 0.35355338 -0.38268343 -0.85355335
v 8.6595606E-17 -0.70710677 -0.70710677
v -0.27059805 -0.70710677 -0.65328145
v -0.49999997 -0.70710677 -0.49999997
v -0.65328145 -0.70710677 -0.27059805
v -0.70710677 -0.70710677 -1.298934E-16
v -0.65328145 -0.70710677 0.27059805
v -0.49999997 -0.70710677 0.49999997
v -0.27059805 -0.70710677 0.65328145
v -1.7319121E-16 -0.70710677 0.70710677
v 0.27059805 -0.70710677 0.65328145
v 0.49999997 -0.70710677 0.49999997
v 0.65328145 -0.70710677 0.27059805
v 0.70710677 -0.70710677 2.1648901E-16
v 0.65328145 -0.70710677 -0.27059805
v 0.49999997 -0.70710677 -0.49999997
v 0.27059805 -0.70710677 -0.65328145
v 4.6865205E-17 -0.9238795 -0.38268343
v -0.1464466 -0.9238795 -0.35355338
v -0.27059805 -0.9238795 -0.27059805
v -0.35355338 -0.9238795 -0.1464466
v -0.38268343 -0.9238795 -7.0297805E-17
v -0.35355338 -0.9238795 0.1464466
v -0.27059805 -0.9238795 0.27059805
v -0.1464466 -0.9238795 0.35355338
v -9.373041E-17 -0.9238795 0.38268343
v 0.1464466 -0.9238795 0.35355338
v 0.27059805 -0.9238795 0.27059805
v 0.35355338 -0.9238795 0.1464466
v 0.38268343 -0.9238795 1.1716301E-16
v 0.35355338 -0.9238795 -0.1464466
v 0.27059805 -0.9238795 -0.27059805
v 0.1464466 -0.9238795 -0.35355338
v 0.0 -1.0 0.0
vt 0.0 1.0
vt 0.0625 1.0
vt 0.125 1.0
vt 0.1875 1.0
vt 0.25 1.0
vt 0.3125 1.0
vt 0.375 1.0
vt 0.4375 1.0
vt 0.5 1.0
vt 0.5625 1.0
vt 0.625 1.0
vt 0.6875 1.0
vt 0.75 1.0
vt 0.8125 1.0
vt 0.875 1.0
vt 0.9375 1.0
vt 0.0 0.875
vt 0.0625 0.875
vt 0.125 0.875
vt 0.1875 0.875
vt 0.25 0.875
vt 0.3125 0.875
vt 0.375 0.875
vt 0.4375 0.875
vt 0.5 0.875
vt 0.5625 0.875
vt 0.625 0.875
vt 0.6875 0.875
vt 0.75 0.875
vt 0.8125 0.875
vt 0.875 0.875
vt 0.9375 0.875
vt 1.0 0.875
vt 0.0 0.75
vt 0.0625 0.75
vt 0.125 0.75
vt 0.1875 0.75
vt 0.25 0.75
vt 0.3125 0.75
vt 0.375 0.75
vt 0.4375 0.75
vt 0.5 0.75
vt 0.5625 0.75
vt 0.625 0.75
vt 0.6875 0.75
vt 0.75 0.75
vt 0.8125 0.75
vt 0.875 0.75
vt 0.9375 0.75
vt 1.0 0.75
vt 0.0 0.625
vt 0.0625 0.625
vt 0.125 0.625
vt 0.1875 0.625
vt 0.25 0.625
vt 0.3125 0.625
vt 0.375 0.625
vt 0.4375 0.625
vt 0.5 0.625
vt 0.5625 0.625
vt 0.625 0.625
vt 0.6875 0.625
vt 0.75 0.625
vt 0.8125 0.625
vt 0.875 0.625
vt 0.9375 0.625
vt 1.0 0.625
vt 0.0 0.5
vt 0.0625 0.5
vt 0.125 0.5
vt 0.1875 0.5
vt 0.25 0.5
vt 0.3125 0.5
vt 0.375 0.5
vt 0.4375 0.5
vt 0.5 0.5
vt 0.5625 0.5
vt 0.625 0.5
vt 0.6875 0.5
vt 0.75 0.5
vt 0.8125 0.5
vt 0.875 0.5
vt 0.9375 0.5
vt 1.0 0.5
vt 0.0 0.375
vt 0.0625 0.375
vt 0.125 0.375
vt 0.1875 0.375
vt 0.25 0.375
vt 0.3125 0.375
vt 0.375 0.375
vt 0.4375 0.375
vt 0.5 0.375
vt 0.5625 0.375
vt 0.625 0.375
vt 0.6875 0.375
vt 0.75 0.375
vt 0.8125 0.375
vt 0.875 0.375
vt 0.9375 0.375
vt 1.0 0.375
vt 0.0 0.25
vt 0.0625 0.25
vt 0.125 0.25
vt 0.1875 0.25
vt 0.25 0.25
vt 0.3125 0.25
vt 0.375 0.25
vt 0.4375 0.25
vt 0.5 0.25
vt 0.5625 0.25
vt 0.625 0.25
vt 0.6875 0.25
vt 0.75 0.25
vt 0.8125 0.25
vt 0.875 0.25
vt 0.9375 0.25
vt 1.0 0.25
vt 0.0 0.125
vt 0.0625 0.125
vt 0.125 0.125
vt 0.1875 0.125
vt 0.25 0.125
vt 0.3125 0.125
vt 0.375 0.125
vt 0.4375 0.125
vt 0.5 0.125
vt 0.5625 0.125
vt 0.625 0.125
vt 0.6875 0.125
vt 0.75 0.125
vt 0.8125 0.125
vt 0.875 0.125
vt 0.9375 0.125
vt 1.0 0.125
vt 0.0625 0.0
vt 0.125 0.0
vt 0.1875 0.0
vt 0.25 0.0
vt 0.3125 0.0
vt 0.375 0.0
vt 0.4375 0.0
vt 0.5 0.0
vt 0.5625 0.0
vt 0.625 0.0
vt 0.6875 0.0
vt 0.75 0.0
vt 0.8125 0.0
vt 0.875 0.0
vt 0.9375 0.0
vt 1.0 0.0
vn 0.0 1.0 0.0
vn 4.6865205E-17 0.9238795 -0.38268343
vn -0.1464466 0.9238795 -0.35355338
vn -0.27059805 0.9238795 -0.27059805
vn -0.35355338 0.9238795 -0.1464466
vn -0.38268343 0.9238795 -7.0297805E-17
vn -0.35355338 0.9238795 0.1464466
vn -0.27059805 0.9238795 0.27059805
vn -0.1464466 0.9238795 0.35355338
vn -9.373041E-17 0.9238795 0.38268343
vn 0.1464466 0.9238795 0.35355338
vn 0.27059805 0.9238795 0.27059805
vn 0.35355338 0.9238795 0.1464466
vn 0.38268343 0.9238795 1.1716301E-16
vn 0.35355338 0.9238795 -0.1464466
vn 0.27059805 0.9238795 -0.27059805
vn 0.1464466 0.9238795 -0.35355338
vn 8.6595606E-17 0.70710677 -0.70710677
vn -0.27059805 0.70710677 -0.65328145
vn -0.49999997 0.70710677 -0.49999997
vn -0.65328145 0.70710677 -0.27059805
vn -0.70710677 0.70710677 -1.298934E-16
vn -0.65328145 0.70710677 0.27059805
vn -0.49999997 0.70710677 0.49999997
vn -0.27059805 0.70710677 0.65328145
vn -1.7319121E-16 0.70710677 0.70710677
vn 0.27059805 0.70710677 0.65328145
vn 0.49999997 0.70710677 0.49999997
vn 0.65328145 0.70710677 0.27059805
vn 0.70710677 0.70710677 2.1648901E-16
vn 0.65328145 0.70710677 -0.27059805
vn 0.49999997 0.70710677 -0.49999997
vn 0.27059805 0.70710677 -0.65328145
vn 1.1314261E-16 0.38268343 -0.9238795
vn -0.35355338 0.38268343 -0.85355335
vn -0.65328145 0.38268343 -0.65328145
vn -0.85355335 0.38268343 -0.35355338
vn -0.9238795 0.38268343 -1.697139E-16
vn -0.85355335 0.38268343 0.35355338
vn -0.65328145 0.38268343 0.65328145
vn -0.35355338 0.38268343 0.85355335
vn -2.2628522E-16 0.38268343 0.9238795
vn 0.35355338 0.38268343 0.85355335
vn 0.65328145 0.38268343 0.65328145
vn 0.85355335 0.38268343 0.35355338
vn 0.9238795 0.38268343 2.8285651E-16
vn 0.85355335 0.38268343 -0.35355338
vn 0.65328145 0.38268343 -0.65328145
vn 0.35355338 0.38268343 -0.85355335
vn 1.2246469E-16 0.0 -1.0
vn -0.38268343 0.0 -0.9238795
vn -0.70710677 0.0 -0.70710677
vn -0.9238795 0.0 -0.38268343
vn -1.0 0.0 -1.8369701E-16
vn -0.9238795 0.0 0.38268343
vn -0.70710677 0.0 0.70710677
vn -0.38268343 0.0 0.9238795
vn -2.4492937E-16 0.0 1.0
vn 0.38268343 0.0 0.9238795
vn 0.70710677 0.0 0.70710677
vn 0.9238795 0.0 0.38268343
vn 1.0 0.0 3.061617E-16
vn 0.9238795 0.0 -0.38268343
vn 0.70710677 0.0 -0.70710677
vn 0.38268343 0.0 -0.9238795
vn 1.1314261E-16 -0.38268343 -0.9238795
vn -0.35355338 -0.38268343 -0.85355335
vn -0.65328145 -0.38268343 -0.65328145
vn -0.85355335 -0.38268343 -0.35355338
vn -0.9238795 -0.38268343 -1.697139E-16
vn -0.85355335 -0.38268343 0.35355338
vn -0.65328145 -0.38268343 0.65328145
vn -0.35355338 -0.38268343 0.85355335
vn -2.2628522E-16 -0.38268343 0.9238795
vn 0.35355338 -0.38268343 0.85355335
vn 0.65328145 -0.38268343 0.65328145
vn 0.85355335 -0.38268343 0.35355338
vn 0.9238795 -0.38268343 2.8285651E-16
vn 0.85355335 -0.38268343 -0.35355338
vn 0.65328145 -0.38268343 -0.65328145
vn 0.35355338 -0.38268343 -0.85355335
vn 8.6595606E-17 -0.70710677 -0.70710677
vn -0.27059805 -0.70710677 -0.65328145
vn -0.49999997 -0.70710677 -0.49999997
vn -0.65328145 -0.70710677 -0.27059805
vn -0.70710677 -0.70710677 -1.298934E-16
vn -0.65328145 -0.70710677 0.27059805
vn -0.49999997 -0.70710677 0.49999997
vn -0.27059805 -0.70710677 0.65328145
vn -1.7319121E-16 -0.70710677 0.70710677
vn 0.27059805 -0.70710677 0.65328145
vn 0.49999997 -0.70710677 0.49999997
vn 0.65328145 -0.70710677 0.27059805
vn 0.70710677 -0.70710677 2.1648901E-16
vn 0.65328145 -0.70710677 -0.27059805
vn 0.49999997 -0.70710677 -0.49999997
vn 0.27059805 -0.70710677 -0.65328145
vn 4.6865205E-17 -0.9238795 -0.38268343
vn -0.1464466 -0.9238795 -0.35355338
vn -0.27059805 -0.9238795 -0.27059805
vn -0.35355338 -0.9238795 -0.1464466
vn -0.38268343 -0.9238795 -7.0297805E-17
vn -0.35355338 -0.9238795 0.1464466
vn -0.27059805 -0.9238795 0.27059805
vn -0.1464466 -0.9238795 0.35355338
vn -9.373041E-17 -0.9238795 0.38268343
vn 0.1464466 -0.9238795 0.35355338
vn 0.27059805 -0.9238795 0.27059805
vn 0.35355338 -0.9238795 0.1464466
vn 0.38268343 -0.9238795 1.1716301E-16
vn 0.35355338 -0.9238795 -0.1464466
vn 0.27059805 -0.9238795 -0.27059805
vn 0.1464466 -0.9238795 -0.35355338
vn 0.0 -1.0 0.0
f 1/1/1 2/17/2 3/18/3
f 1/2/1 3/18/3 4/19/4
f 1/3/1 4/19/4 5/20/5
f 1/4/1 5/20/5 6/21/6
f 1/5/1 6/21/6 7/22/7
f 1/6/1 7/22/7 8/23/8
f 1/7/1 8/23/8 9/24/9
f 1/8/1 9/24/9 10/25/10
f 1/9/1 10/25/10 11/26/11
f 1/10/1 11/26/11 12/27/12
f 1/11/1 12/27/12 13/28/13
f 1/12/1 13/28/13 14/29/14
f 1/13/1 14/29/14 15/30/15
f 1/14/1 15/30/15 16/31/16
f 1/15/1 16/31/16 17/32/17
f 1/16/1 17/32/17 2/33/2
f 2/17/2 19/35/19 3/18/3
f 2/17/2 18/34/18 19/35/19
f 3/18/3 20/36/20 4/19/4
f 3/18/3 19/35/19 20/36/20
f 4/19/4 21/37/21 5/20/5
f 4/19/4 20/36/20 21/37/21
f 5/20/5 22/38/22 6/21/6
f 5/20/5 21/37/21 22/38/22
f 6/21/6 23/39/23 7/22/7
f 6/21/6 22/38/22 23/39/23
f 7/22/7 24/40/24 8/23/8
f 7/22/7 23/39/23 24/40/24
f 8/23/8 25/41/25 9/24/9
f 8/23/8 24/40/24 25/41/25
f 9/24/9 26/42/26 10/25/10
f 9/24/9 25/41/25 26/42/26
f 10/25/10 27/43/27 11/26/11
f 10/25/10 26/42/26 27/43/27
f 11/26/11 28/44/28 12/27/12
f 11/26/11 27/43/27 28/44/28
f 12/27/12 29/45/29 13/28/13
f 12/27/12 28/44/28 29/45/29
f 13/28/13 30/46/30 14/29/14
f 13/28/13 29/45/29 30/46/30
f 14/29/14 31/47/31 15/30/15
f 14/29/14 30/46/30 31/47/31
f 15/30/15 32/48/32 16/31/16
f 15/30/15 31/47/31 32/48/32
f 16/31/16 33/49/33 17/32/17
f 16/31/16 32/48/32 33/49/33
f 17/32/17 18/50/18 2/33/2
f 17/32/17 33/49/33 18/50/18
f 18/34/18 35/52/35 19/35/19
f 18/34/18 34/51/34 35/52/35
f 19/35/19 36/53/36 20/36/20
f 19/35/19 35/52/35 36/53/36
f 20/36/20 37/54/37 21/37/21
f 20/36/20 36/53/36 37/54/37
f 21/37/21 38/55/38 22/38/22
f 21/37/21 37/54/37 38/55/38
f 22/38/22 39/56/39 23/39/23
f 22/38/22 38/55/38 39/56/39
f 23/39/23 40/57/40 24/40/24
f 23/39/23 39/56/39 40/57/40
f 24/40/24 41/58/41 25/41/25
f 24/40/24 40/57/40 41/58/41
f 25/41/25 42/59/42 26/42/26
f 25/41/25 41/58/41 42/59/42
f 26/42/26 43/60/43 27/43/27
f 26/42/26 42/59/42 43/60/43
f 27/43/27 44/61/44 28/44/28
f 27/43/27 43/60/43 44/61/44
f 28/44/28 45/62/45 29/45/29
f 28/44/28 44/61/44 45/62/45
f 29/45/29 46/63/46 30/46/30
f 29/45/29 45/62/45 46/63/46
f 30/46/30 47/64/47 31/47/31
f 30/46/30 46/63/46 47/64/47
f 31/47/31 48/65/48 32/48/32
f 31/47/31 47/64/47 48/65/48
f 32/48/32 49/66/49 33/49/33
f 32/48/32 48/65/48 49/66/49
f 33/49/33 34/67/34 18/50/18
f 33/49/33 49/66/49 34/67/34
f 34/51/34 51/69/51 35/52/35
f 34/51/34 50/68/50 51/69/51
f 35/52/35 52/70/52 36/53/36
f 35/52/35 51/69/51 52/70/52
f 36/53/36 53/71/53 37/54/37
f 36/53/36 52/70/52 53/71/53
f 37/54/37 54/72/54 38/55/38
f 37/54/37 53/71/53 54/72/54
f 38/55/38 55/73/55 39/56/39
f 38/55/38 54/72/54 55/73/55
f 39/56/39 56/74/56 40/57/40
f 39/56/39 55/73/55 56/74/56
f 40/57/40 57/75/57 41/58/41
f 40/57/40 56/74/56 57/75/57
f 41/58/41 58/76/58 42/59/42
f 41/58/41 57/75/57 58/76/58
f 42/59/42 59/77/59 43/60/43
f 42/59/42 58/76/58 59/77/59
f 43/60/43 60/78/60 44/61/44
f 43/60/43 59/77/59 60/78/60
f 44/61/44 61/79/61 45/62/45
f 44/61/44 60/78/60 61/79/61
f 45/62/45 62/80/62 46/63/46
f 45/62/45 61/79/61 62/80/62
f 46/63/46 63/81/63 47/64/47
f 46/63/46 62/80/62 63/81/63
f 47/64/47 64/82/64 48/65/48
f 47/64/47 63/81/63 64/82/64
f 48/65/48 65/83/65 49/66/49
f 48/65/48 64/82/64 65/83/65
f 49/66/49 50/84/50 34/67/34
f 49/66/49 65/83/65 50/84/50
f 50/68/50 67/86/67 51/69/51
f 50/68/50 66/85/66 67/86/67
f 51/69/51 68/87/68 52/70/52
f 51/69/51 67/86/67 68/87/68
f 52/70/52 69/88/69 53/71/53
f 52/70/52 68/87/68 69/88/69
f 53/71/53 70/89/70 54/72/54
f 53/71/53 69/88/69 70/89/70
f 54/72/54 71/90/71 55/73/55
f 54/72/54 70/89/70 71/90/71
f 55/73/55 72/91/72 56/74/56
f 55/73/55 71/90/71 72/91/72
f 56/74/56 73/92/73 57/75/57
f 56/74/56 72/91/72 73/92/73
f 57/75/57 74/93/74 58/76/58
f 57/75/57 73/92/73 74/93/74
f 58/76/58 75/94/75 59/77/59
f 58/76/58 74/93/74 75/94/75
f 59/77/59 76/95/76 60/78/60
f 59/77/59 75/94/75 76/95/76
f 60/78/60 77/96/77 61/79/61
f 60/78/60 76/95/76 77/96/77
f 61/79/61 78/97/78 62/80/62
f 61/79/61 77/96/77 78/97/78
f 62/80/62 79/98/79 63/81/63
f 62/80/62 78/97/78 79/98/79
f 63/81/63 80/99/80 64/82/64
f 63/81/63 79/98/79 80/99/80
f 64/82/64 81/100/81 65/83/65
f 64/82/64 80/99/80 81/100/81
f 65/83/65 66/101/66 50/84/50
f 65/83/65 81/100/81 66/101/66
f 66/85/66 83/103/83 67/86/67
f 66/85/66 82/102/82 83/103/83
f 67/86/67 84/104/84 68/87/68
f 67/86/67 83/103/83 84/104/84
f 68/87/68 85/105/85 69/88/69
f 68/87/68 84/104/84 85/105/85
f 69/88/69 86/106/86 70/89/70
f 69/88/69 85/105/85 86/106/86
f 70/89/70 87/107/87 71/90/71
f 70/89/70 86/106/86 87/107/87
f 71/90/71 88/108/88 72/91/72
f 71/90/71 87/107/87 88/108/88
f 72/91/72 89/109/89 73/92/73
f 72/91/72 88/108/88 89/109/89
f 73/92/73 90/110/90 74/93/74
f 73/92/73 89/109/89 90/110/90
f 74/93/74 91/111/91 75/94/75
f 74/93/74 90/110/90 91/111/91
f 75/94/75 92/112/92 76/95/76
f 75/94/75 91/111/91 92/112/92
f 76/95/76 93/113/93 77/96/77
f 76/95/76 92/112/92 93/113/93
f 77/96/77 94/114/94 78/97/78
f 77/96/77 93/113/93 94/114/94
f 78/97/78 95/115/95 79/98/79
f 78/97/78 94/114/94 95/115/95
f 79/98/79 96/116/96 80/99/80
f 79/98/79 95/115/95 96/116/96
f 80/99/80 97/117/97 81/100/81
f 80/99/80 96/116/96 97/117/97
f 81/100/81 82/118/82 66/101/66
f 81/100/81 97/117/97 82/118/82
f 82/102/82 99/120/99 83/103/83
f 82/102/82 98/119/98 99/120/99
f 83/103/83 100/121/100 84/104/84
f 83/103/83 99/120/99 100/121/100
f 84/104/84 101/122/101 85/105/85
f 84/104/84 100/121/100 101/122/101
f 85/105/85 102/123/102 86/106/86
f 85/105/85 101/122/101 102/123/102
f 86/106/86 103/124/103 87/107/87
f 86/106/86 102/123/102 103/124/103
f 87/107/87 104/125/104 88/108/88
f 87/107/87 103/124/103 104/125/104
f 88/108/88 105/126/105 89/109/89
f 88/108/88 104/125/104 105/126/105
f 89/109/89 106/127/106 90/110/90
f 89/109/89 105/126/105 106/127/106
f 90/110/90 107/128/107 91/111/91
f 90/110/90 106/127/106 107/128/107
f 91/111/91 108/129/108 92/112/92
f 91/111/91 107/128/107 108/129/108
f 92/112/92 109/130/109 93/113/93
f 92/112/92 108/129/108 109/130/109
f 93/113/93 110/131/110 94/114/94
f 93/113/93 109/130/109 110/131/110
f 94/114/94 111/132/111 95/115/95
f 94/114/94 110/131/110 111/132/111
f 95/115/95 112/133/112 96/116/96
f 95/115/95 111/132/111 112/133/112
f 96/116/96 113/134/113 97/117/97
f 96/116/96 112/133/112 113/134/113
f 97/117/97 98/135/98 82/118/82
f 97/117/97 113/134/113 98/135/98
f 114/136/114 99/120/99 98/119/98
f 114/137/114 100/121/100 99/120/99
f 114/138/114 101/122/101 100/121/100
f 114/139/114 102/123/102 101/122/101
f 114/140/114 103/124/103 102/123/102
f 114/141/114 104/125/104 103/124/103
f 114/142/114 105/126/105 104/125/104
f 114/143/114 106/127/106 105/126/105
f 114/144/114 107/128/107 106/127/106
f 114/145/114 108/129/108 107/128/107
f 114/146/114 109/130/109 108/129/108
f 114/147/114 110/131/110 109/130/109
f 114/148/114 111/132/111 110/131/110
f 114/149/114 112/133/112 111/132/111
f 114/150/114 113/134/113 112/133/112
f 114/151/114 98/135/98 113/134/113
